<svg width="33" height="25" viewBox="0 0 33 25" fill="none" xmlns="http://www.w3.org/2000/svg">
<path d="M5.07812 0C3.73132 0 2.43968 0.535015 1.48735 1.48735C0.535015 2.43968 0 3.73132 0 5.07812V19.2969C0 20.6437 0.535015 21.9353 1.48735 22.8877C2.43968 23.84 3.73132 24.375 5.07812 24.375H19.2969C20.6437 24.375 21.9353 23.84 22.8877 22.8877C23.84 21.9353 24.375 20.6437 24.375 19.2969V17.316L29.2183 21.099C30.5524 22.1406 32.5 21.19 32.5 19.4984V4.87663C32.5 3.185 30.5524 2.23437 29.2183 3.276L24.375 7.059V5.07812C24.375 3.73132 23.84 2.43968 22.8877 1.48735C21.9353 0.535015 20.6437 0 19.2969 0H5.07812ZM24.375 9.63625L30.4688 4.87663V19.4976L24.375 14.7387V9.63625ZM22.3438 5.07812V19.2969C22.3438 19.697 22.2649 20.0932 22.1118 20.4629C21.9587 20.8325 21.7343 21.1684 21.4513 21.4513C21.1684 21.7343 20.8325 21.9587 20.4629 22.1118C20.0932 22.2649 19.697 22.3438 19.2969 22.3438H5.07812C4.27004 22.3438 3.49506 22.0227 2.92366 21.4513C2.35226 20.8799 2.03125 20.105 2.03125 19.2969V5.07812C2.03125 4.27004 2.35226 3.49506 2.92366 2.92366C3.49506 2.35226 4.27004 2.03125 5.07812 2.03125H19.2969C19.697 2.03125 20.0932 2.11006 20.4629 2.26318C20.8325 2.4163 21.1684 2.64073 21.4513 2.92366C21.7343 3.20659 21.9587 3.54247 22.1118 3.91214C22.2649 4.2818 22.3438 4.678 22.3438 5.07812Z" fill="#FF282C"/>
</svg>
