<svg width="15" height="14" viewBox="0 0 15 14" fill="none" xmlns="http://www.w3.org/2000/svg">
<path d="M5.99312 11.9867C5.99306 12.1104 6.02749 12.2317 6.09253 12.337C6.15758 12.4423 6.25068 12.5273 6.36137 12.5827L7.69323 13.2486C7.79478 13.2993 7.90761 13.3233 8.02102 13.3181C8.13443 13.313 8.24464 13.279 8.34119 13.2192C8.43774 13.1595 8.51742 13.0761 8.57266 12.9769C8.6279 12.8778 8.65687 12.7661 8.65682 12.6526V7.9911C8.65697 7.66106 8.77966 7.34283 9.0011 7.0981L13.8111 1.77802C13.8973 1.6825 13.954 1.56405 13.9743 1.43699C13.9946 1.30993 13.9777 1.17971 13.9256 1.06207C13.8734 0.944426 13.7883 0.844407 13.6806 0.774105C13.5728 0.703802 13.447 0.666228 13.3183 0.665924H1.33164C1.20285 0.665971 1.07685 0.703359 0.968877 0.773562C0.860908 0.843764 0.775612 0.943768 0.72332 1.06146C0.671029 1.17915 0.653985 1.30948 0.674255 1.43666C0.694524 1.56384 0.751237 1.68241 0.837523 1.77802L5.64883 7.0981C5.87028 7.34283 5.99297 7.66106 5.99312 7.9911V11.9867Z" stroke="#4A5565" stroke-width="1.33185" stroke-linecap="round" stroke-linejoin="round"/>
</svg>
