<svg width="33" height="25" viewBox="0 0 33 25" fill="none" xmlns="http://www.w3.org/2000/svg">
<path fill-rule="evenodd" clip-rule="evenodd" d="M30.3672 3.42062L17.5439 14.04C17.1795 14.3419 16.7212 14.5071 16.248 14.5071C15.7748 14.5071 15.3164 14.3419 14.952 14.04L2.13484 3.42062C2.06604 3.62762 2.03106 3.84436 2.03125 4.0625V20.3125C2.03125 20.8512 2.24526 21.3679 2.62619 21.7488C3.00712 22.1297 3.52378 22.3438 4.0625 22.3438H28.4375C28.9762 22.3438 29.4929 22.1297 29.8738 21.7488C30.2547 21.3679 30.4688 20.8512 30.4688 20.3125V4.0625C30.4696 3.84447 30.4353 3.62774 30.3672 3.42062ZM4.0625 0H28.4375C29.5149 0 30.5483 0.428012 31.3101 1.18988C32.072 1.95175 32.5 2.98506 32.5 4.0625V20.3125C32.5 21.3899 32.072 22.4233 31.3101 23.1851C30.5483 23.947 29.5149 24.375 28.4375 24.375H4.0625C2.98506 24.375 1.95175 23.947 1.18988 23.1851C0.428012 22.4233 0 21.3899 0 20.3125V4.0625C0 2.98506 0.428012 1.95175 1.18988 1.18988C1.95175 0.428012 2.98506 0 4.0625 0ZM3.63594 2.03125L14.9622 11.3811C15.3249 11.6807 15.7805 11.8451 16.2509 11.8462C16.7214 11.8473 17.1777 11.6851 17.5419 11.3872L28.9819 2.03125H3.63594Z" fill="#33B8BC"/>
</svg>
