<svg width="36" height="36" viewBox="0 0 36 36" fill="none" xmlns="http://www.w3.org/2000/svg">
<path d="M0 7.875V27H36V7.875H0ZM1.2 9.07031H34.8V25.8047H1.2V9.07031ZM6 10.2656V10.8633C6 12.5212 4.6644 13.8516 3 13.8516H2.4V21.0234H3C4.6644 21.0234 6 22.3538 6 24.0117V24.6094H30V24.0117C30 22.3538 31.3356 21.0234 33 21.0234H33.6V13.8516H33C32.6057 13.8528 32.215 13.7764 31.8505 13.6267C31.4859 13.4769 31.1547 13.2569 30.8759 12.9791C30.597 12.7014 30.3761 12.3715 30.2258 12.0083C30.0755 11.6452 29.9987 11.2561 30 10.8633V10.2656H6ZM7.0776 11.4609H14.0268C13.0354 12.1144 12.2219 13.0021 11.6589 14.045C11.0958 15.0879 10.8007 16.2534 10.8 17.4375C10.8008 18.6221 11.0965 19.7881 11.6604 20.8311C12.2243 21.874 13.039 22.7615 14.0316 23.4141H7.0776C6.95022 22.5404 6.54282 21.7312 5.91615 21.107C5.28947 20.4827 4.47706 20.0769 3.6 19.95V14.925C4.47713 14.7983 5.28964 14.3925 5.91636 13.7682C6.54307 13.144 6.9504 12.3346 7.0776 11.4609ZM18 11.4609C21.3204 11.4609 24 14.1301 24 17.4375C24 20.7449 21.3204 23.4141 18 23.4141C14.6796 23.4141 12 20.7449 12 17.4375C12 14.1301 14.6796 11.4609 18 11.4609ZM21.972 11.4609H28.9224C29.0496 12.3346 29.4569 13.144 30.0836 13.7682C30.7104 14.3925 31.5229 14.7983 32.4 14.925V19.95C31.5229 20.0769 30.7105 20.4827 30.0839 21.107C29.4572 21.7312 29.0498 22.5404 28.9224 23.4141H21.9684C22.961 22.7615 23.7757 21.874 24.3396 20.8311C24.9035 19.7881 25.1992 18.6221 25.2 17.4375C25.1991 16.2533 24.9039 15.0877 24.3406 14.0448C23.7773 13.0019 22.9636 12.1142 21.972 11.4609ZM17.6604 12.6562V13.7631C17.358 13.799 17.0868 13.8731 16.842 13.9795C16.5984 14.087 16.3896 14.2257 16.2168 14.393C16.0488 14.5604 15.9168 14.7576 15.8232 14.9859C15.7344 15.2142 15.6888 15.4676 15.6888 15.7425C15.6888 16.0414 15.7416 16.3043 15.8448 16.5315C15.9504 16.7598 16.1004 16.9618 16.296 17.1363C16.4952 17.3108 16.7364 17.4626 17.016 17.5941C17.2992 17.722 17.6196 17.8331 17.9748 17.93C18.24 18.0172 18.4656 18.1093 18.6516 18.2037C18.8424 18.2969 18.996 18.3985 19.1112 18.5085C19.2312 18.6197 19.3176 18.7392 19.3716 18.8671C19.4255 18.9995 19.4525 19.1413 19.4508 19.2843C19.4508 19.4659 19.4184 19.6309 19.3524 19.7791C19.2851 19.9236 19.1848 20.0505 19.0596 20.1497C18.9348 20.2513 18.7788 20.329 18.5928 20.3863C18.2233 20.4891 17.8334 20.4945 17.4612 20.4019C17.2932 20.3588 17.1396 20.2823 17.0016 20.1712C16.8566 20.0502 16.7426 19.8966 16.6692 19.7229C16.5776 19.4977 16.5343 19.2558 16.542 19.0129H15.3708C15.3708 19.393 15.4308 19.7182 15.5508 19.9895C15.6708 20.2572 15.8292 20.482 16.0284 20.6589C16.2324 20.8382 16.4676 20.972 16.7292 21.0653C16.992 21.1597 17.2608 21.2219 17.5404 21.2517V22.2188H18.4668V21.2517C18.7992 21.2183 19.098 21.1525 19.3644 21.0509C19.6308 20.9505 19.8564 20.8155 20.0436 20.6481C20.2296 20.4808 20.3748 20.2823 20.4768 20.054C20.58 19.8233 20.6292 19.564 20.6292 19.2747C20.6342 19.0076 20.5839 18.7423 20.4816 18.4954C20.3831 18.2681 20.2361 18.065 20.0508 17.9001C19.8398 17.7159 19.6019 17.5647 19.3452 17.4518C19.033 17.3098 18.71 17.1927 18.3792 17.1016C18.1331 17.0254 17.8925 16.9323 17.6592 16.8231C17.4915 16.7409 17.335 16.6377 17.1936 16.5159C17.0822 16.42 16.994 16.3003 16.9356 16.1657C16.8846 16.0247 16.8594 15.8757 16.8612 15.7258C16.8612 15.5513 16.8876 15.3911 16.9356 15.2477C16.9859 15.1049 17.0686 14.9757 17.1773 14.8699C17.2859 14.7642 17.4176 14.6849 17.562 14.6381C17.718 14.5819 17.8992 14.5544 18.1128 14.5544C18.3168 14.5544 18.4992 14.5915 18.6588 14.6692C18.8159 14.744 18.9532 14.8545 19.0596 14.9919C19.1664 15.1282 19.2456 15.2907 19.2984 15.4784C19.356 15.6672 19.3848 15.8752 19.3848 16.0999H20.55C20.55 15.4186 20.3784 14.8807 20.0364 14.4887C19.7004 14.093 19.2204 13.8516 18.6 13.7679V12.6562H17.6604Z" fill="#39383C"/>
</svg>
