<svg width="35" height="37" viewBox="0 0 35 37" fill="none" xmlns="http://www.w3.org/2000/svg">
<path d="M30.1789 19.9158V14.7842C30.1789 9.13945 30.1789 6.31708 28.4257 4.56379C26.6724 2.8105 23.85 2.8105 18.2053 2.8105H13.0737C7.42895 2.8105 4.60658 2.8105 2.85329 4.56379C1.1 6.31708 1.1 9.13945 1.1 14.7842V23.3368C1.1 28.9816 1.1 31.8039 2.85329 33.5572C4.60658 35.3105 7.42895 35.3105 13.0737 35.3105H15.6395M24.1921 1.09998V4.52103M15.6395 1.09998V4.52103M7.08684 1.09998V4.52103M19.9158 31.8894C19.9158 31.8894 21.6263 31.8894 23.3368 35.3105C23.3368 35.3105 28.7712 26.7579 33.6 25.0473M8.79737 23.3368H15.6395M8.79737 14.7842H22.4816" stroke="#1787A5" stroke-width="2.2" stroke-linecap="round" stroke-linejoin="round"/>
</svg>
