<svg width="17" height="17" viewBox="0 0 17 17" fill="none" xmlns="http://www.w3.org/2000/svg">
<path d="M9.29033 4.49561C9.29033 2.29003 7.32449 0.5 4.89517 0.5C2.46584 0.5 0.5 2.29003 0.5 4.49561H2.09824L2.89736 3.69648L3.69648 4.49561H6.89297M9.29033 3.80836C10.0995 3.2101 11.0809 2.89044 12.0873 2.89736C14.5166 2.89736 16.4824 4.68739 16.4824 6.89297H14.0851L13.2859 6.09385L12.4868 6.89297H10.0895" stroke="#193CB8" stroke-linecap="round" stroke-linejoin="round"/>
<path d="M3.60841 5.86213C1.8903 7.58024 1.77043 10.2333 3.32872 11.7996L6.71699 8.40334L7.27638 7.84395L7.84375 7.27657L9.53789 5.58244C7.9796 4.01616 5.32652 4.14402 3.60841 5.86213Z" stroke="#193CB8" stroke-linecap="round" stroke-linejoin="round"/>
<path d="M7.69219 10.489C8.09175 12.4868 7.55634 14.0851 6.89307 15.6833H10.0896C11.6878 11.2881 9.68999 6.09385 9.29043 4.49561" stroke="#193CB8" stroke-linecap="round" stroke-linejoin="round"/>
</svg>
