<svg width="12" height="15" viewBox="0 0 12 15" fill="none" xmlns="http://www.w3.org/2000/svg">
<path d="M11.3208 5.99342C11.3208 9.31838 7.6322 12.7812 6.39358 13.8507C6.27819 13.9374 6.13773 13.9844 5.99336 13.9844C5.84899 13.9844 5.70853 13.9374 5.59314 13.8507C4.35452 12.7812 0.665955 9.31838 0.665955 5.99342C0.665955 4.5805 1.22723 3.22546 2.22631 2.22638C3.2254 1.22729 4.58044 0.666016 5.99336 0.666016C7.40627 0.666016 8.76132 1.22729 9.7604 2.22638C10.7595 3.22546 11.3208 4.5805 11.3208 5.99342Z" stroke="#717182" stroke-width="1.33185" stroke-linecap="round" stroke-linejoin="round"/>
<path d="M5.99338 7.99116C7.09672 7.99116 7.99116 7.09672 7.99116 5.99338C7.99116 4.89004 7.09672 3.99561 5.99338 3.99561C4.89004 3.99561 3.99561 4.89004 3.99561 5.99338C3.99561 7.09672 4.89004 7.99116 5.99338 7.99116Z" stroke="#717182" stroke-width="1.33185" stroke-linecap="round" stroke-linejoin="round"/>
</svg>
