<svg width="28" height="28" viewBox="0 0 28 28" fill="none" xmlns="http://www.w3.org/2000/svg">
<g clip-path="url(#clip0_442_16)">
<path d="M26.5161 1.89194C26.2058 1.72385 25.8509 1.63047 25.4755 1.63037C24.5056 1.6344 23.6804 2.27836 23.4001 3.15908L9.97084 8.84385L3.59368 8.86859C1.98614 8.87497 0.676317 10.1954 0.679627 11.8056L0.68647 16.2925C0.690487 17.9014 2.0072 19.2117 3.61471 19.2053L3.924 19.2036L3.93416 23.4245L3.93681 23.4228C3.93562 23.7194 4.17554 23.9588 4.47264 23.9583L6.6241 23.9501C6.84725 23.9499 7.04845 23.8106 7.12571 23.5987L8.74868 19.1837L9.99716 19.1801L23.4479 24.7605C23.7318 25.6411 24.5594 26.28 25.5305 26.2766C26.7318 26.2722 27.7145 25.2849 27.7118 24.0826L27.6702 3.80862C27.6689 2.98156 27.2005 2.25958 26.518 1.89121L26.5161 1.89194ZM26.0156 2.83049C26.3639 3.01539 26.5964 3.38202 26.5971 3.8128L26.6407 24.0862C26.6421 24.7129 26.1543 25.2004 25.5282 25.2027C24.902 25.2051 24.4167 24.7215 24.4153 24.0948L24.3704 3.82064C24.369 3.19393 24.8537 2.70311 25.4799 2.70075C25.6757 2.69966 25.8585 2.74697 26.0168 2.83119L26.0156 2.83049ZM23.2983 4.36899L23.3389 23.5582L10.6374 18.2842L10.6353 17.4584L10.6184 9.73415L23.2983 4.36899ZM9.54696 9.9153L9.56667 18.1092L3.61503 18.1298C2.58652 18.1331 1.76286 17.3159 1.75984 16.2858L1.74785 11.7992C1.74606 10.7698 2.56599 9.94055 3.5952 9.93606L9.54696 9.9153ZM7.60715 19.1901L6.24941 22.8765L5.00361 22.8783L4.99869 19.1974L5.96664 19.1939L7.60715 19.1901Z" fill="#39383C"/>
</g>
<defs>
<clipPath id="clip0_442_16">
<rect width="28" height="28" fill="white"/>
</clipPath>
</defs>
</svg>
