<svg width="16" height="16" viewBox="0 0 16 16" fill="none" xmlns="http://www.w3.org/2000/svg">
<path d="M9.98884 13.9844V8.65704C9.98884 8.48043 9.91868 8.31105 9.79379 8.18616C9.66891 8.06128 9.49953 7.99112 9.32291 7.99112H6.65921C6.4826 7.99112 6.31322 8.06128 6.18833 8.18616C6.06345 8.31105 5.99329 8.48043 5.99329 8.65704V13.9844" stroke="#9810FA" stroke-width="1.33185" stroke-linecap="round" stroke-linejoin="round"/>
<path d="M1.9978 6.65923C1.99776 6.4655 2.03998 6.27408 2.12152 6.09834C2.20307 5.9226 2.32197 5.76676 2.46994 5.6417L7.13142 1.64615C7.37181 1.44298 7.67639 1.33151 7.99113 1.33151C8.30588 1.33151 8.61045 1.44298 8.85084 1.64615L13.5123 5.6417C13.6603 5.76676 13.7792 5.9226 13.8607 6.09834C13.9423 6.27408 13.9845 6.4655 13.9845 6.65923V12.6526C13.9845 13.0058 13.8441 13.3446 13.5944 13.5943C13.3446 13.8441 13.0058 13.9844 12.6526 13.9844H3.32965C2.97642 13.9844 2.63766 13.8441 2.38789 13.5943C2.13812 13.3446 1.9978 13.0058 1.9978 12.6526V6.65923Z" stroke="#9810FA" stroke-width="1.33185" stroke-linecap="round" stroke-linejoin="round"/>
</svg>
