<svg width="19" height="17" viewBox="0 0 19 17" fill="none" xmlns="http://www.w3.org/2000/svg">
<path d="M17.2867 13.3424L10.6213 1.678C10.476 1.42155 10.2652 1.20825 10.0106 1.05985C9.75587 0.911442 9.46638 0.833252 9.17162 0.833252C8.87685 0.833252 8.58736 0.911442 8.33268 1.05985C8.078 1.20825 7.86724 1.42155 7.7219 1.678L1.05654 13.3424C0.909636 13.5968 0.832605 13.8855 0.833256 14.1793C0.833907 14.4731 0.912215 14.7615 1.06024 15.0152C1.20827 15.269 1.42076 15.4791 1.67616 15.6243C1.93157 15.7695 2.22082 15.8445 2.51459 15.8419H15.8453C16.1377 15.8416 16.4248 15.7644 16.6779 15.618C16.931 15.4716 17.1411 15.2613 17.2871 15.008C17.4332 14.7547 17.51 14.4675 17.5099 14.1751C17.5099 13.8828 17.4329 13.5956 17.2867 13.3424Z" stroke="#D4183D" stroke-width="1.66634" stroke-linecap="round" stroke-linejoin="round"/>
<path d="M9.17993 5.84375V9.17643" stroke="#D4183D" stroke-width="1.66634" stroke-linecap="round" stroke-linejoin="round"/>
<path d="M9.17993 12.509H9.18826" stroke="#D4183D" stroke-width="1.66634" stroke-linecap="round" stroke-linejoin="round"/>
</svg>
