<svg width="448" height="406" viewBox="0 0 448 406" fill="none" xmlns="http://www.w3.org/2000/svg">
<path d="M448 117.333C448 86.2146 435.638 56.3704 413.634 34.3661C391.63 12.3619 361.785 0 330.667 0C299.548 0 269.704 12.3619 247.699 34.3661C225.695 56.3704 213.333 86.2146 213.333 117.333C213.333 148.452 225.695 178.296 247.699 200.301C269.704 222.305 299.548 234.667 330.667 234.667C361.785 234.667 391.63 222.305 413.634 200.301C435.638 178.296 448 148.452 448 117.333ZM341.333 128L341.355 181.419C341.355 184.248 340.231 186.961 338.23 188.961C336.23 190.962 333.517 192.085 330.688 192.085C327.859 192.085 325.146 190.962 323.146 188.961C321.145 186.961 320.021 184.248 320.021 181.419V128H266.581C263.752 128 261.039 126.876 259.039 124.876C257.038 122.875 255.915 120.162 255.915 117.333C255.915 114.504 257.038 111.791 259.039 109.791C261.039 107.79 263.752 106.667 266.581 106.667H320V53.3333C320 50.5044 321.124 47.7913 323.124 45.7909C325.125 43.7905 327.838 42.6667 330.667 42.6667C333.496 42.6667 336.209 43.7905 338.209 45.7909C340.21 47.7913 341.333 50.5044 341.333 53.3333V106.667H394.603C397.432 106.667 400.145 107.79 402.145 109.791C404.146 111.791 405.269 114.504 405.269 117.333C405.269 120.162 404.146 122.875 402.145 124.876C400.145 126.876 397.432 128 394.603 128H341.333ZM394.667 336V240.384C406.371 234.276 417.146 226.533 426.667 217.387V336C426.668 353.71 419.892 370.748 407.73 383.621C395.567 396.494 378.94 404.224 361.259 405.227L357.333 405.333H69.3333C51.6237 405.335 34.585 398.559 21.7124 386.396C8.83982 374.234 1.10931 357.607 0.106669 339.925L1.48804e-07 336V133.333C-0.0011594 115.624 6.77449 98.585 18.937 85.7124C31.0995 72.8398 47.7268 65.1093 65.408 64.1067L69.3333 64H202.624C198.341 74.2637 195.318 85.0088 193.621 96H69.3333C59.964 96.0004 50.9372 99.5237 44.045 105.871C37.1528 112.217 32.899 120.924 32.128 130.261L32 133.333V142.485L213.333 237.909L241.173 223.253C250.539 231.168 260.949 237.867 272.192 243.093L220.779 270.165C218.817 271.196 216.662 271.808 214.451 271.962C212.241 272.116 210.022 271.81 207.936 271.061L205.888 270.165L32 178.645V336C32.0004 345.369 35.5236 354.396 41.8705 361.288C48.2174 368.181 56.9237 372.434 66.2613 373.205L69.3333 373.333H357.333C366.706 373.333 375.736 369.806 382.628 363.455C389.521 357.104 393.773 348.392 394.539 339.051L394.667 336Z" fill="black"/>
</svg>
