<svg width="16" height="19" viewBox="0 0 16 19" fill="none" xmlns="http://www.w3.org/2000/svg">
<path d="M9.38576 15.9795C10.0022 15.9795 10.3872 16.6816 10.0781 17.2422C9.64878 18.0203 8.85765 18.5 8.00197 18.5C7.14625 18.5 6.35517 18.0203 5.9258 17.2422C5.63211 16.7096 5.9648 16.0491 6.52736 15.9844L6.61818 15.9795H9.38576ZM8.00197 0C11.0947 6.0679e-05 13.6023 2.63557 13.6026 5.88672C13.6026 8.25147 13.9964 10.0503 14.6475 11.3643C14.8714 11.8162 15.1101 12.1761 15.3477 12.4541L15.4151 12.5312L15.5313 12.6533C15.5484 12.6702 15.5645 12.6858 15.5791 12.6992L15.6592 12.7656C16.2767 13.217 16.0094 14.213 15.294 14.292L15.2022 14.2979H0.801773C0.0418724 14.2979 -0.275353 13.3024 0.283218 12.8145L0.375992 12.7432L0.439468 12.6855L0.536148 12.5879C0.55479 12.5682 0.574717 12.5467 0.595718 12.5234C0.829918 12.2636 1.06983 11.9179 1.29884 11.4766C1.94862 10.2243 2.35907 8.50751 2.39845 6.24805L2.40138 5.88672C2.40162 2.63553 4.90918 0 8.00197 0ZM8.00197 1.68164C5.85086 1.68164 4.09575 3.46727 4.0049 5.70508L4.00197 5.88672C4.00197 8.5992 3.52019 10.7094 2.70412 12.2822L2.59377 12.4883L2.52052 12.6143H13.4824L13.3526 12.3828L13.2285 12.1416C12.4549 10.5803 12.002 8.51462 12.002 5.88672C12.0017 3.56454 10.211 1.6817 8.00197 1.68164Z" fill="#3C414A"/>
</svg>
