<svg width="15" height="19" viewBox="0 0 15 19" fill="none" xmlns="http://www.w3.org/2000/svg">
<path d="M7.49854 7.49878H7.50687" stroke="#0A0A0A" stroke-width="1.66634" stroke-linecap="round" stroke-linejoin="round"/>
<path d="M7.49854 10.8313H7.50687" stroke="#0A0A0A" stroke-width="1.66634" stroke-linecap="round" stroke-linejoin="round"/>
<path d="M7.49854 4.16602H7.50687" stroke="#0A0A0A" stroke-width="1.66634" stroke-linecap="round" stroke-linejoin="round"/>
<path d="M10.8312 7.49878H10.8396" stroke="#0A0A0A" stroke-width="1.66634" stroke-linecap="round" stroke-linejoin="round"/>
<path d="M10.8312 10.8313H10.8396" stroke="#0A0A0A" stroke-width="1.66634" stroke-linecap="round" stroke-linejoin="round"/>
<path d="M10.8312 4.16602H10.8396" stroke="#0A0A0A" stroke-width="1.66634" stroke-linecap="round" stroke-linejoin="round"/>
<path d="M4.16583 7.49878H4.17416" stroke="#0A0A0A" stroke-width="1.66634" stroke-linecap="round" stroke-linejoin="round"/>
<path d="M4.16583 10.8313H4.17416" stroke="#0A0A0A" stroke-width="1.66634" stroke-linecap="round" stroke-linejoin="round"/>
<path d="M4.16583 4.16602H4.17416" stroke="#0A0A0A" stroke-width="1.66634" stroke-linecap="round" stroke-linejoin="round"/>
<path d="M4.99902 17.4967V14.9972C4.99902 14.7763 5.0868 14.5643 5.24305 14.4081C5.3993 14.2518 5.61122 14.1641 5.83219 14.1641H9.16488C9.38585 14.1641 9.59777 14.2518 9.75402 14.4081C9.91027 14.5643 9.99805 14.7763 9.99805 14.9972V17.4967" stroke="#0A0A0A" stroke-width="1.66634" stroke-linecap="round" stroke-linejoin="round"/>
<path d="M12.4976 0.833252H2.49953C1.57924 0.833252 0.833191 1.5793 0.833191 2.49959V15.8303C0.833191 16.7506 1.57924 17.4967 2.49953 17.4967H12.4976C13.4179 17.4967 14.1639 16.7506 14.1639 15.8303V2.49959C14.1639 1.5793 13.4179 0.833252 12.4976 0.833252Z" stroke="#0A0A0A" stroke-width="1.66634" stroke-linecap="round" stroke-linejoin="round"/>
</svg>
