<svg width="16" height="17" viewBox="0 0 16 17" fill="none" xmlns="http://www.w3.org/2000/svg">
<path d="M0.600098 6.01664H15.1834M4.02593 2.26664V0.599976M11.7343 2.26664V0.599976M12.2668 2.26664H3.51676C2.74322 2.26664 2.00135 2.57393 1.45437 3.12091C0.907389 3.6679 0.600098 4.40976 0.600098 5.18331V13.1C0.600098 13.8735 0.907389 14.6154 1.45437 15.1624C2.00135 15.7094 2.74322 16.0166 3.51676 16.0166H12.2668C13.0403 16.0166 13.7822 15.7094 14.3292 15.1624C14.8761 14.6154 15.1834 13.8735 15.1834 13.1V5.18331C15.1834 4.40976 14.8761 3.6679 14.3292 3.12091C13.7822 2.57393 13.0403 2.26664 12.2668 2.26664Z" stroke="#F54900" stroke-width="1.2" stroke-linecap="round" stroke-linejoin="round"/>
</svg>
