<svg width="33" height="33" viewBox="0 0 33 33" fill="none" xmlns="http://www.w3.org/2000/svg">
<path d="M23.375 19.25C24.1344 19.25 24.75 18.6344 24.75 17.875C24.75 17.1156 24.1344 16.5 23.375 16.5C22.6156 16.5 22 17.1156 22 17.875C22 18.6344 22.6156 19.25 23.375 19.25Z" fill="#016630"/>
<path d="M23.375 24.75C24.1344 24.75 24.75 24.1344 24.75 23.375C24.75 22.6156 24.1344 22 23.375 22C22.6156 22 22 22.6156 22 23.375C22 24.1344 22.6156 24.75 23.375 24.75Z" fill="#016630"/>
<path d="M17.875 17.875C17.875 18.6344 17.2594 19.25 16.5 19.25C15.7406 19.25 15.125 18.6344 15.125 17.875C15.125 17.1156 15.7406 16.5 16.5 16.5C17.2594 16.5 17.875 17.1156 17.875 17.875Z" fill="#016630"/>
<path d="M17.875 23.375C17.875 24.1344 17.2594 24.75 16.5 24.75C15.7406 24.75 15.125 24.1344 15.125 23.375C15.125 22.6156 15.7406 22 16.5 22C17.2594 22 17.875 22.6156 17.875 23.375Z" fill="#016630"/>
<path d="M9.625 19.25C10.3844 19.25 11 18.6344 11 17.875C11 17.1156 10.3844 16.5 9.625 16.5C8.86562 16.5 8.25 17.1156 8.25 17.875C8.25 18.6344 8.86562 19.25 9.625 19.25Z" fill="#016630"/>
<path d="M9.625 24.75C10.3844 24.75 11 24.1344 11 23.375C11 22.6156 10.3844 22 9.625 22C8.86562 22 8.25 22.6156 8.25 23.375C8.25 24.1344 8.86562 24.75 9.625 24.75Z" fill="#016630"/>
<path fill-rule="evenodd" clip-rule="evenodd" d="M9.625 2.40625C10.1945 2.40625 10.6562 2.86796 10.6562 3.4375V4.48624C11.5665 4.46874 12.5693 4.46874 13.6723 4.46875H19.3275C20.4306 4.46874 21.4335 4.46874 22.3437 4.48624V3.4375C22.3437 2.86796 22.8055 2.40625 23.375 2.40625C23.9445 2.40625 24.4062 2.86796 24.4062 3.4375V4.57475C24.7636 4.602 25.1021 4.63625 25.4224 4.6793C27.0344 4.89604 28.3393 5.35271 29.3683 6.38171C30.3973 7.41071 30.8539 8.71551 31.0707 10.3276C31.2812 11.894 31.2812 13.8955 31.2812 16.4223V19.3276C31.2812 21.8544 31.2812 23.856 31.0707 25.4224C30.8539 27.0344 30.3973 28.3393 29.3683 29.3684C28.3393 30.3973 27.0344 30.8539 25.4224 31.0707C23.856 31.2813 21.8545 31.2812 19.3277 31.2812H13.6724C11.1455 31.2812 9.144 31.2813 7.5776 31.0707C5.96552 30.8539 4.66071 30.3973 3.63171 29.3684C2.60271 28.3393 2.14605 27.0344 1.92932 25.4224C1.71871 23.856 1.71872 21.8545 1.71875 19.3276V16.4224C1.71872 13.8955 1.71871 11.894 1.92932 10.3276C2.14605 8.71551 2.60271 7.41071 3.63171 6.38171C4.66071 5.35271 5.96552 4.89604 7.5776 4.6793C7.89786 4.63625 8.23633 4.602 8.59375 4.57475V3.4375C8.59375 2.86796 9.05546 2.40625 9.625 2.40625ZM7.85242 6.72342C6.46904 6.9094 5.67203 7.2582 5.09011 7.84011C4.5082 8.42203 4.1594 9.21904 3.97342 10.6024C3.94192 10.8367 3.91559 11.0833 3.89356 11.3438H29.1064C29.0844 11.0833 29.058 10.8367 29.0265 10.6024C28.8406 9.21904 28.4918 8.42203 27.9099 7.84011C27.328 7.2582 26.5309 6.9094 25.1476 6.72342C23.7346 6.53344 21.8718 6.53125 19.25 6.53125H13.75C11.1281 6.53125 9.26545 6.53344 7.85242 6.72342ZM3.78125 16.5C3.78125 15.3258 3.78169 14.3037 3.79925 13.4062H29.2007C29.2183 14.3037 29.2187 15.3258 29.2187 16.5V19.25C29.2187 21.8719 29.2165 23.7346 29.0265 25.1476C28.8406 26.5309 28.4918 27.328 27.9099 27.9099C27.328 28.4918 26.5309 28.8406 25.1476 29.0265C23.7346 29.2166 21.8718 29.2188 19.25 29.2188H13.75C11.1281 29.2188 9.26545 29.2166 7.85242 29.0265C6.46904 28.8406 5.67203 28.4918 5.09011 27.9099C4.5082 27.328 4.1594 26.5309 3.97342 25.1476C3.78344 23.7346 3.78125 21.8719 3.78125 19.25V16.5Z" fill="#016630"/>
</svg>
