<svg width="33" height="33" viewBox="0 0 33 33" fill="none" xmlns="http://www.w3.org/2000/svg">
<path fill-rule="evenodd" clip-rule="evenodd" d="M9.17389 7.10864H23.3223C24.4278 7.10863 25.3192 7.10863 26.0411 7.16785C26.7843 7.22883 27.4371 7.35768 28.0406 7.66669C28.9888 8.15225 29.7603 8.92376 30.2459 9.872C30.5549 10.4755 30.6838 11.1282 30.7447 11.8715C30.804 12.5934 30.804 13.4849 30.8039 14.5902V14.6339C30.8039 14.6727 30.804 14.7116 30.8041 14.7508C30.8055 15.2086 30.8069 15.696 30.6302 16.1318C30.4782 16.5059 30.2334 16.835 29.9186 17.088C29.7751 17.2035 29.616 17.2949 29.4493 17.3712C29.4452 19.5543 29.4174 21.7603 29.2214 23.65C29.1065 24.7592 28.9299 25.8007 28.65 26.6886C28.3746 27.5622 27.968 28.3892 27.3244 28.9613C26.2095 29.9523 24.8062 30.3893 23.0545 30.5987C21.335 30.8041 19.1311 30.8041 16.3175 30.8041H16.1787C13.3652 30.8041 11.1613 30.8041 9.44182 30.5987C7.69007 30.3893 6.2868 29.9523 5.17185 28.9613C4.52821 28.3892 4.1216 27.5622 3.84624 26.6886C3.56632 25.8007 3.38984 24.7592 3.27485 23.65C3.07895 21.7603 3.05101 19.5543 3.04702 17.3712C2.88029 17.2949 2.72126 17.2035 2.57766 17.088C2.26289 16.835 2.01798 16.5059 1.86618 16.1318C1.68937 15.696 1.69078 15.2086 1.6921 14.7508C1.69222 14.7116 1.69233 14.6727 1.69233 14.6339V14.5902C1.69232 13.4849 1.69231 12.5933 1.75153 11.8715C1.81252 11.1282 1.94137 10.4755 2.25038 9.872C2.73594 8.92376 3.50745 8.15225 4.45569 7.66669C5.05918 7.35768 5.71192 7.22883 6.45517 7.16785C7.17703 7.10863 8.06856 7.10863 9.17389 7.10864ZM5.08023 18.0204C5.08944 19.9658 5.12861 21.8349 5.29506 23.4407C5.40316 24.4833 5.56131 25.3737 5.78331 26.078C6.00987 26.7968 6.2725 27.2222 6.52119 27.4433C7.19087 28.0385 8.11607 28.3948 9.68282 28.582C11.2677 28.7713 13.3502 28.7731 16.2481 28.7731C19.1461 28.7731 21.2286 28.7713 22.8135 28.582C24.3802 28.3948 25.3054 28.0385 25.9751 27.4433C26.2237 27.2222 26.4864 26.7968 26.713 26.078C26.935 25.3737 27.0932 24.4833 27.2012 23.4407C27.3676 21.8349 27.4069 19.9658 27.4161 18.0204L20.6487 20.0504V20.5291C20.6487 21.2211 20.2274 21.8435 19.5848 22.1006L18.6368 22.4797C17.1034 23.0931 15.3929 23.0931 13.8594 22.4797L12.9115 22.1006C12.2689 21.8436 11.8475 21.2211 11.8475 20.5291V20.0504L5.08023 18.0204ZM11.8475 17.93L4.54604 15.7395C4.25436 15.652 4.08579 15.6008 3.96221 15.5541C3.88647 15.5254 3.8563 15.5085 3.84846 15.5036C3.80463 15.468 3.77039 15.422 3.74889 15.3698C3.74645 15.3609 3.73897 15.3272 3.73327 15.2464C3.72396 15.1146 3.72338 14.9384 3.72338 14.6339C3.72338 13.4746 3.72417 12.6666 3.77578 12.0376C3.8264 11.4205 3.92078 11.0661 4.0582 10.7977C4.34953 10.2288 4.81245 9.76586 5.3814 9.47452C5.64977 9.33709 6.00417 9.24271 6.62125 9.19209C7.25027 9.14048 8.05834 9.13969 9.21755 9.13969H23.2787C24.4379 9.13969 25.246 9.14048 25.8751 9.19209C26.4921 9.24271 26.8465 9.33709 27.1148 9.47452C27.6838 9.76586 28.1467 10.2288 28.4381 10.7977C28.5756 11.0661 28.6699 11.4205 28.7204 12.0376C28.7722 12.6666 28.7728 13.4746 28.7728 14.6339C28.7728 14.9384 28.7723 15.1146 28.7629 15.2464C28.7573 15.3272 28.7498 15.3609 28.7474 15.3698C28.7259 15.422 28.6916 15.468 28.6479 15.5036C28.64 15.5085 28.6098 15.5254 28.5341 15.5541C28.4105 15.6008 28.2419 15.652 27.9503 15.7395L20.6487 17.93V17.6024C20.6487 16.6675 19.8909 15.9098 18.9561 15.9098H13.5401C12.6053 15.9098 11.8475 16.6675 11.8475 17.6024V17.93ZM13.8785 17.9409V20.2999L14.6138 20.594C15.663 21.0137 16.8333 21.0137 17.8825 20.594L18.6176 20.2999V17.9409H13.8785Z" fill="#E92D9A"/>
<path fill-rule="evenodd" clip-rule="evenodd" d="M16.2483 3.72361C14.9234 3.72361 13.7936 4.56992 13.3749 5.75456C13.188 6.28336 12.6078 6.56053 12.079 6.37362C11.5502 6.18671 11.2731 5.60652 11.46 5.07773C12.1565 3.10697 14.036 1.69257 16.2483 1.69257C18.4608 1.69257 20.3402 3.10697 21.0369 5.07773C21.2237 5.60652 20.9465 6.18671 20.4178 6.37362C19.8889 6.56053 19.3087 6.28336 19.1219 5.75456C18.7032 4.56992 17.5733 3.72361 16.2483 3.72361Z" fill="#E92D9A"/>
</svg>
