<svg width="35" height="35" viewBox="0 0 35 35" fill="none" xmlns="http://www.w3.org/2000/svg">
<path d="M17.5002 33.75C21.2597 33.75 24.9029 32.4464 27.809 30.0613C30.7152 27.6763 32.7044 24.3574 33.4378 20.6701C34.1712 16.9828 33.6034 13.1553 31.8312 9.8397C30.0589 6.52411 27.1919 3.9256 23.7185 2.48692C20.2452 1.04824 16.3804 0.8584 12.7828 1.94976C9.18516 3.04111 6.07724 5.34614 3.98858 8.47208C1.89993 11.598 0.959762 15.3515 1.32828 19.0929C1.69681 22.8343 3.35121 26.3322 6.00961 28.9906" stroke="#F97245" stroke-width="2.5" stroke-linecap="round"/>
<path d="M24.7224 13.8889L18.226 21.6853C17.0434 23.1045 16.4511 23.8159 15.6549 23.852C14.8605 23.8881 14.205 23.2327 12.8978 21.9254L10.278 19.3056" stroke="#F97245" stroke-width="2.5" stroke-linecap="round"/>
</svg>
