<svg width="35" height="35" viewBox="0 0 35 35" fill="none" xmlns="http://www.w3.org/2000/svg">
<path d="M17.3502 33.6C21.1097 33.6 24.7529 32.2964 27.659 29.9113C30.5652 27.5263 32.5544 24.2074 33.2878 20.5201C34.0212 16.8328 33.4534 13.0053 31.6812 9.68967C29.9089 6.37409 27.0419 3.77557 23.5685 2.33689C20.0952 0.898211 16.2304 0.708375 12.6328 1.79973C9.03517 2.89109 5.92725 5.19611 3.83859 8.32206C1.74993 11.448 0.809768 15.2014 1.17829 18.9429C1.54681 22.6843 3.20122 26.1822 5.85962 28.8405" stroke="#F97245" stroke-width="2.2" stroke-linecap="round"/>
<path d="M24.5724 13.7389L18.076 21.5353C16.8934 22.9544 16.3012 23.6658 15.5049 23.7019C14.7105 23.7381 14.055 23.0826 12.7478 21.7754L10.128 19.1556" stroke="#F97245" stroke-width="2.2" stroke-linecap="round"/>
</svg>
