<svg width="29" height="25" viewBox="0 0 29 25" fill="none" xmlns="http://www.w3.org/2000/svg">
<path d="M28.2627 23.5294H26.0508V9.55838C26.0508 9.10334 25.8696 8.66693 25.547 8.34517C25.2243 8.02341 24.7868 7.84264 24.3305 7.84264H16.2203V1.71501C16.2202 1.40447 16.1356 1.09979 15.9755 0.833459C15.8153 0.567124 15.5857 0.349122 15.3112 0.202699C15.0366 0.0562761 14.7273 -0.0130778 14.4163 0.00203278C14.1053 0.0171434 13.8042 0.116152 13.5452 0.288501L3.7147 6.82423C3.47913 6.98098 3.28599 7.19331 3.15245 7.44237C3.0189 7.69144 2.94907 7.96953 2.94915 8.25197V23.5294H0.737288C0.541747 23.5294 0.354215 23.6068 0.215947 23.7447C0.0776784 23.8826 0 24.0697 0 24.2647C0 24.4597 0.0776784 24.6467 0.215947 24.7846C0.354215 24.9225 0.541747 25 0.737288 25H28.2627C28.4583 25 28.6458 24.9225 28.7841 24.7846C28.9223 24.6467 29 24.4597 29 24.2647C29 24.0697 28.9223 23.8826 28.7841 23.7447C28.6458 23.6068 28.4583 23.5294 28.2627 23.5294ZM24.3305 9.31327C24.3957 9.31327 24.4582 9.3391 24.5043 9.38506C24.5504 9.43103 24.5763 9.49337 24.5763 9.55838V23.5294H16.2203V9.31327H24.3305ZM4.42373 8.25197C4.4238 8.21171 4.43382 8.17209 4.4529 8.13661C4.47197 8.10112 4.49951 8.07087 4.53309 8.04853L14.3636 1.51158C14.4006 1.48697 14.4436 1.47283 14.488 1.47066C14.5324 1.46848 14.5765 1.47836 14.6157 1.49924C14.6549 1.52011 14.6877 1.5512 14.7106 1.5892C14.7335 1.6272 14.7457 1.67068 14.7458 1.71501V23.5294H4.42373V8.25197ZM12.2881 11.5192V13.4801C12.2881 13.6751 12.2105 13.8621 12.0722 14C11.9339 14.1379 11.7464 14.2154 11.5508 14.2154C11.3553 14.2154 11.1678 14.1379 11.0295 14C10.8912 13.8621 10.8136 13.6751 10.8136 13.4801V11.5192C10.8136 11.3242 10.8912 11.1372 11.0295 10.9993C11.1678 10.8614 11.3553 10.7839 11.5508 10.7839C11.7464 10.7839 11.9339 10.8614 12.0722 10.9993C12.2105 11.1372 12.2881 11.3242 12.2881 11.5192ZM8.35593 11.5192V13.4801C8.35593 13.6751 8.27825 13.8621 8.13999 14C8.00172 14.1379 7.81418 14.2154 7.61864 14.2154C7.4231 14.2154 7.23557 14.1379 7.0973 14C6.95903 13.8621 6.88136 13.6751 6.88136 13.4801V11.5192C6.88136 11.3242 6.95903 11.1372 7.0973 10.9993C7.23557 10.8614 7.4231 10.7839 7.61864 10.7839C7.81418 10.7839 8.00172 10.8614 8.13999 10.9993C8.27825 11.1372 8.35593 11.3242 8.35593 11.5192ZM8.35593 18.3822V20.343C8.35593 20.538 8.27825 20.725 8.13999 20.8629C8.00172 21.0008 7.81418 21.0783 7.61864 21.0783C7.4231 21.0783 7.23557 21.0008 7.0973 20.8629C6.95903 20.725 6.88136 20.538 6.88136 20.343V18.3822C6.88136 18.1871 6.95903 18.0001 7.0973 17.8622C7.23557 17.7243 7.4231 17.6468 7.61864 17.6468C7.81418 17.6468 8.00172 17.7243 8.13999 17.8622C8.27825 18.0001 8.35593 18.1871 8.35593 18.3822ZM12.2881 18.3822V20.343C12.2881 20.538 12.2105 20.725 12.0722 20.8629C11.9339 21.0008 11.7464 21.0783 11.5508 21.0783C11.3553 21.0783 11.1678 21.0008 11.0295 20.8629C10.8912 20.725 10.8136 20.538 10.8136 20.343V18.3822C10.8136 18.1871 10.8912 18.0001 11.0295 17.8622C11.1678 17.7243 11.3553 17.6468 11.5508 17.6468C11.7464 17.6468 11.9339 17.7243 12.0722 17.8622C12.2105 18.0001 12.2881 18.1871 12.2881 18.3822Z" fill="#39383C"/>
</svg>
