<svg width="28" height="32" viewBox="0 0 28 32" fill="none" xmlns="http://www.w3.org/2000/svg">
<path d="M14.7305 0.000233837C14.5309 -0.00351619 14.3251 0.0377341 14.1293 0.131483L2.97192 5.44149C2.24777 5.78648 1.78216 6.51649 1.78216 7.31648L1.78341 31H0.500761C0.224652 31.0012 0.00125303 31.2237 0 31.4975C0 31.6312 0.0527107 31.7575 0.145583 31.8525C0.239711 31.9462 0.367725 32 0.500768 32H27.4955C27.6298 32 27.7578 31.9475 27.8532 31.8538C27.9473 31.7588 28 31.6313 28 31.4975C27.9987 31.365 27.946 31.2388 27.8507 31.145C27.7565 31.0512 27.6285 31 27.4955 31H26.2141V14.9413C26.2141 14.0514 25.6857 13.2414 24.8687 12.8814L16.101 9.02029V1.36791C16.101 0.59541 15.4446 0.0139617 14.7305 0.000233837ZM14.7594 0.988957C14.9464 0.996456 15.0982 1.14646 15.0982 1.36646L15.097 30.9997H13.1479V26.216C13.1492 25.9398 12.9258 25.7148 12.6484 25.7136H5.23978C5.10549 25.7136 4.97748 25.7661 4.88335 25.8611C4.78796 25.9548 4.73525 26.0823 4.73525 26.2161V30.9997H2.78618V7.31615C2.78618 6.8999 3.02841 6.5224 3.40617 6.3424L14.5636 1.03111C14.6301 0.999863 14.6966 0.986115 14.7581 0.988614L14.7594 0.988957ZM5.45579 8.63621V8.63746C5.32276 8.63746 5.19474 8.69121 5.1006 8.78496C5.00647 8.87871 4.95376 9.00621 4.95502 9.13872C4.95502 9.41496 5.17967 9.63746 5.45578 9.63871H13.1667C13.2998 9.63871 13.4278 9.58621 13.5232 9.49246C13.6173 9.39872 13.67 9.27247 13.6713 9.13871C13.6713 9.00621 13.6185 8.87746 13.5232 8.78371C13.429 8.68996 13.301 8.63621 13.1667 8.63746L5.45579 8.63621ZM16.1011 10.1125L24.461 13.7962C24.9166 13.9975 25.209 14.4437 25.209 14.9412V30.9999H16.1011L16.1011 10.1125ZM5.45579 13.825V13.8263C5.17968 13.8275 4.95503 14.05 4.95503 14.325C4.95377 14.4588 5.00649 14.5863 5.10061 14.68C5.19473 14.7738 5.32275 14.8275 5.45579 14.8275H13.1667C13.301 14.8275 13.429 14.775 13.5232 14.6813C13.6186 14.5863 13.6713 14.4588 13.6713 14.325C13.67 14.1925 13.6173 14.065 13.5232 13.9713C13.4278 13.8788 13.2998 13.8263 13.1667 13.8263L5.45579 13.825ZM5.45579 19.0112V19.0125C5.17968 19.0137 4.95628 19.2362 4.95503 19.51C4.95377 19.6437 5.00649 19.7712 5.10061 19.865C5.19473 19.9587 5.32275 20.0125 5.45579 20.0125H13.1667C13.301 20.0125 13.429 19.96 13.5232 19.8662C13.6186 19.7712 13.6713 19.6437 13.6713 19.51C13.67 19.3775 13.6173 19.2512 13.5219 19.1575C13.4278 19.0637 13.2998 19.0125 13.1667 19.0125L5.45579 19.0112ZM18.4503 19.5837V19.585C18.316 19.5837 18.188 19.6375 18.0926 19.7312C17.9985 19.825 17.9458 19.9537 17.9458 20.0862C17.947 20.2187 17.9998 20.3462 18.0951 20.44C18.1893 20.5325 18.3173 20.585 18.4503 20.585H22.8642C23.139 20.5837 23.3624 20.3612 23.3637 20.0862C23.365 19.9537 23.3122 19.8262 23.2181 19.7325C23.124 19.6387 22.9972 19.585 22.8642 19.585L18.4503 19.5837ZM18.4503 24.4662V24.4675C18.316 24.4662 18.188 24.52 18.0926 24.6137C17.9985 24.7075 17.9458 24.8362 17.9458 24.9687C17.947 25.1012 17.9998 25.2287 18.0951 25.3225C18.1893 25.415 18.3173 25.4675 18.4503 25.4675H22.8642C23.139 25.4662 23.3624 25.2437 23.3637 24.9687C23.365 24.8362 23.3122 24.7087 23.2181 24.615C23.124 24.5212 22.9972 24.4675 22.8642 24.4675L18.4503 24.4662ZM5.74045 26.7137H8.44127V31H5.74045V26.7137ZM9.44523 26.7137H12.1435V31H9.44523V26.7137Z" fill="#39383C"/>
</svg>
