<svg width="15" height="11" viewBox="0 0 15 11" fill="none" xmlns="http://www.w3.org/2000/svg">
<path d="M0.707548 5.55882C0.652049 5.40931 0.652049 5.24485 0.707548 5.09534C1.24808 3.7847 2.1656 2.66407 3.34379 1.87552C4.52199 1.08697 5.90779 0.666016 7.32551 0.666016C8.74324 0.666016 10.129 1.08697 11.3072 1.87552C12.4854 2.66407 13.4029 3.7847 13.9435 5.09534C13.999 5.24485 13.999 5.40931 13.9435 5.55882C13.4029 6.86946 12.4854 7.99009 11.3072 8.77864C10.129 9.56719 8.74324 9.98815 7.32551 9.98815C5.90779 9.98815 4.52199 9.56719 3.34379 8.77864C2.1656 7.99009 1.24808 6.86946 0.707548 5.55882Z" stroke="#4A5565" stroke-width="1.33185" stroke-linecap="round" stroke-linejoin="round"/>
<path d="M7.32553 7.32465C8.42887 7.32465 9.3233 6.43022 9.3233 5.32688C9.3233 4.22354 8.42887 3.3291 7.32553 3.3291C6.22219 3.3291 5.32775 4.22354 5.32775 5.32688C5.32775 6.43022 6.22219 7.32465 7.32553 7.32465Z" stroke="#4A5565" stroke-width="1.33185" stroke-linecap="round" stroke-linejoin="round"/>
</svg>
