<svg width="16" height="16" viewBox="0 0 16 16" fill="none" xmlns="http://www.w3.org/2000/svg">
<path d="M11.8535 12.7858L10.6548 7.32519L12.9856 4.99445C13.9845 3.99556 14.3174 2.66371 13.9845 1.99779C13.3185 1.66482 11.9867 1.99779 10.9878 2.99667L8.65706 5.32741L3.19647 4.12875C2.86351 4.06215 2.59714 4.19534 2.46395 4.46171L2.26417 4.79467C2.13099 5.12763 2.19758 5.4606 2.46395 5.66038L5.99336 7.99111L4.6615 9.98889H2.66373L1.9978 10.6548L3.99558 11.9867L5.32743 13.9844L5.99336 13.3185V11.3207L7.99113 9.98889L10.3219 13.5183C10.5216 13.7847 10.8546 13.8513 11.1876 13.7181L11.5205 13.5849C11.7869 13.3851 11.9201 13.1187 11.8535 12.7858Z" stroke="#193CB8" stroke-width="1.33185" stroke-linecap="round" stroke-linejoin="round"/>
</svg>
