<svg width="28" height="19" viewBox="0 0 28 19" fill="none" xmlns="http://www.w3.org/2000/svg">
<path d="M28 1.72727V19H1.75V15.5455H0V0H24.5V1.72727H28ZM21 1.72727C21 1.97017 21.0456 2.19508 21.1367 2.40199C21.2279 2.6089 21.3509 2.78883 21.5059 2.94176C21.6608 3.0947 21.8477 3.22064 22.0664 3.3196C22.2852 3.41856 22.513 3.46354 22.75 3.45455V1.72727H21ZM1.75 3.45455C1.99609 3.45455 2.22396 3.40956 2.43359 3.3196C2.64323 3.22964 2.82552 3.10819 2.98047 2.95526C3.13542 2.80232 3.26302 2.6179 3.36328 2.40199C3.46354 2.18608 3.50911 1.96117 3.5 1.72727H1.75V3.45455ZM1.75 10.3636C2.23307 10.3636 2.68424 10.4536 3.10352 10.6335C3.52279 10.8134 3.89648 11.0608 4.22461 11.3757C4.55273 11.6906 4.80339 12.0549 4.97656 12.4688C5.14974 12.8826 5.24089 13.3324 5.25 13.8182H19.25C19.25 13.3414 19.3411 12.8961 19.5234 12.4822C19.7057 12.0684 19.9564 11.6996 20.2754 11.3757C20.5944 11.0518 20.9635 10.8045 21.3828 10.6335C21.8021 10.4626 22.2578 10.3726 22.75 10.3636V5.18182C22.2669 5.18182 21.8158 5.09186 21.3965 4.91193C20.9772 4.73201 20.6035 4.48461 20.2754 4.16974C19.9473 3.85488 19.6966 3.49053 19.5234 3.0767C19.3503 2.66288 19.2591 2.21307 19.25 1.72727H5.25C5.25 2.20407 5.15885 2.64938 4.97656 3.06321C4.79427 3.47704 4.54362 3.84588 4.22461 4.16974C3.9056 4.49361 3.53646 4.741 3.11719 4.91193C2.69792 5.08286 2.24219 5.17282 1.75 5.18182V10.3636ZM22.75 12.0909C22.5039 12.0909 22.276 12.1359 22.0664 12.2259C21.8568 12.3158 21.6745 12.4373 21.5195 12.5902C21.3646 12.7431 21.237 12.9276 21.1367 13.1435C21.0365 13.3594 20.9909 13.5843 21 13.8182H22.75V12.0909ZM1.75 13.8182H3.5C3.5 13.5753 3.45443 13.3504 3.36328 13.1435C3.27214 12.9366 3.14909 12.7566 2.99414 12.6037C2.83919 12.4508 2.65234 12.3248 2.43359 12.2259C2.21484 12.1269 1.98698 12.0819 1.75 12.0909V13.8182ZM26.25 3.45455H24.5V15.5455H3.5V17.2727H26.25V3.45455ZM6.125 8.63636C5.88802 8.63636 5.68294 8.5509 5.50977 8.37997C5.33659 8.20904 5.25 8.00663 5.25 7.77273C5.25 7.53883 5.33659 7.33641 5.50977 7.16548C5.68294 6.99455 5.88802 6.90909 6.125 6.90909C6.36198 6.90909 6.56706 6.99455 6.74023 7.16548C6.91341 7.33641 7 7.53883 7 7.77273C7 8.00663 6.91341 8.20904 6.74023 8.37997C6.56706 8.5509 6.36198 8.63636 6.125 8.63636ZM18.375 8.63636C18.138 8.63636 17.9329 8.5509 17.7598 8.37997C17.5866 8.20904 17.5 8.00663 17.5 7.77273C17.5 7.53883 17.5866 7.33641 17.7598 7.16548C17.9329 6.99455 18.138 6.90909 18.375 6.90909C18.612 6.90909 18.8171 6.99455 18.9902 7.16548C19.1634 7.33641 19.25 7.53883 19.25 7.77273C19.25 8.00663 19.1634 8.20904 18.9902 8.37997C18.8171 8.5509 18.612 8.63636 18.375 8.63636ZM12.25 12.0909C11.7669 12.0909 11.3158 12.0009 10.8965 11.821C10.4772 11.6411 10.1035 11.3937 9.77539 11.0788C9.44727 10.764 9.19661 10.3996 9.02344 9.9858C8.85026 9.57197 8.75911 9.12216 8.75 8.63636V6.90909C8.75 6.43229 8.84115 5.98698 9.02344 5.57315C9.20573 5.15933 9.45638 4.79048 9.77539 4.46662C10.0944 4.14276 10.4635 3.89536 10.8828 3.72443C11.3021 3.5535 11.7578 3.46354 12.25 3.45455C12.7331 3.45455 13.1842 3.54451 13.6035 3.72443C14.0228 3.90436 14.3965 4.15175 14.7246 4.46662C15.0527 4.78149 15.3034 5.14583 15.4766 5.55966C15.6497 5.97348 15.7409 6.4233 15.75 6.90909V8.63636C15.75 9.11316 15.6589 9.55848 15.4766 9.9723C15.2943 10.3861 15.0436 10.755 14.7246 11.0788C14.4056 11.4027 14.0365 11.6501 13.6172 11.821C13.1979 11.992 12.7422 12.0819 12.25 12.0909ZM10.5 8.63636C10.5 8.87926 10.5456 9.10417 10.6367 9.31108C10.7279 9.51799 10.8509 9.69792 11.0059 9.85085C11.1608 10.0038 11.3477 10.1297 11.5664 10.2287C11.7852 10.3277 12.013 10.3726 12.25 10.3636C12.4961 10.3636 12.724 10.3187 12.9336 10.2287C13.1432 10.1387 13.3255 10.0173 13.4805 9.86435C13.6354 9.71141 13.763 9.52699 13.8633 9.31108C13.9635 9.09517 14.0091 8.87027 14 8.63636V6.90909C14 6.66619 13.9544 6.44129 13.8633 6.23438C13.7721 6.02746 13.6491 5.84754 13.4941 5.6946C13.3392 5.54167 13.1523 5.41572 12.9336 5.31676C12.7148 5.2178 12.487 5.17282 12.25 5.18182C12.0039 5.18182 11.776 5.2268 11.5664 5.31676C11.3568 5.40672 11.1745 5.52817 11.0195 5.68111C10.8646 5.83404 10.737 6.01847 10.6367 6.23438C10.5365 6.45028 10.4909 6.67519 10.5 6.90909V8.63636Z" fill="#39383C"/>
</svg>
