<svg width="28" height="27" viewBox="0 0 28 27" fill="none" xmlns="http://www.w3.org/2000/svg">
<path d="M15.15 7.35001C15.15 3.76201 11.952 0.850006 8 0.850006C4.048 0.850006 0.85 3.76201 0.85 7.35001H3.45L4.75 6.05001L6.05 7.35001H11.25M15.15 6.23201C16.4664 5.25876 18.0629 4.73874 19.7 4.75001C23.652 4.75001 26.85 7.66201 26.85 11.25H22.95L21.65 9.95001L20.35 11.25H16.45" stroke="#193CB8" stroke-width="1.7" stroke-linecap="round" stroke-linejoin="round"/>
<path d="M5.907 9.573C3.112 12.368 2.917 16.684 5.452 19.232L10.964 13.707L11.874 12.797L12.797 11.874L15.553 9.118C13.018 6.57 8.702 6.778 5.907 9.573Z" stroke="#193CB8" stroke-width="1.7" stroke-linecap="round" stroke-linejoin="round"/>
<path d="M12.55 17.1C13.2 20.35 12.329 22.95 11.25 25.55H16.45C19.05 18.4 15.8 9.95001 15.15 7.35001" stroke="#193CB8" stroke-width="1.7" stroke-linecap="round" stroke-linejoin="round"/>
</svg>
