<svg width="36" height="36" viewBox="0 0 36 36" fill="none" xmlns="http://www.w3.org/2000/svg">
<path d="M32.2169 6H3.7831C2.24604 6 1 7.24604 1 8.7831V27.3769C1 28.9139 2.24604 30.16 3.7831 30.16H32.2169C33.754 30.16 35 28.9139 35 27.3769V8.7831C35 7.24604 33.754 6 32.2169 6Z" stroke="#39383C" stroke-linecap="round" stroke-linejoin="round"/>
<path d="M9.5001 19.054C11.3257 19.054 12.8057 17.5741 12.8057 15.7484C12.8057 13.9228 11.3257 12.4429 9.5001 12.4429C7.67448 12.4429 6.19452 13.9228 6.19452 15.7484C6.19452 17.5741 7.67448 19.054 9.5001 19.054Z" stroke="#39383C" stroke-linecap="round" stroke-linejoin="round"/>
<path d="M5.31615 24.6622H14.3923C14.8638 24.6625 15.2463 24.2803 15.2466 23.8088C15.2467 23.6049 15.1739 23.4077 15.0412 23.2528C12.74 20.3882 8.55215 19.9315 5.68742 22.2327C5.31142 22.5348 4.96938 22.8768 4.66732 23.2528C4.36053 23.6109 4.40209 24.15 4.76027 24.4568C4.91511 24.5895 5.11224 24.6623 5.31615 24.6622Z" stroke="#39383C" stroke-linecap="round" stroke-linejoin="round"/>
<path d="M22.3681 15.1587H28.8611" stroke="#39383C" stroke-linecap="round" stroke-linejoin="round"/>
<path d="M22.3681 21.5337H28.8611" stroke="#39383C" stroke-linecap="round" stroke-linejoin="round"/>
<path d="M22.3681 18.3462H31.3403" stroke="#39383C" stroke-linecap="round" stroke-linejoin="round"/>
</svg>
