<svg width="26" height="20" viewBox="0 0 26 20" fill="none" xmlns="http://www.w3.org/2000/svg">
<path d="M8.252 12.294C7.51655 12.3289 6.81219 12.6011 6.24435 13.0698C5.67651 13.5385 5.27573 14.1785 5.102 14.894C5.026 15.196 4.69 15.326 4.398 15.28C4.08 15.23 3.918 14.81 4.038 14.45C4.464 13.148 5.332 12.15 6.466 11.61C5.96692 11.2093 5.60467 10.6635 5.42934 10.048C5.254 9.43244 5.27425 8.77765 5.48728 8.17413C5.70031 7.57062 6.0956 7.0482 6.61848 6.67914C7.14136 6.31007 7.76599 6.11259 8.406 6.114C10.114 6.114 11.5 7.502 11.5 9.206C11.5 10.15 11.074 10.996 10.406 11.566C11.574 12.088 12.462 13.098 12.94 14.4C13.072 14.76 12.986 15.118 12.686 15.28C12.6025 15.3101 12.5137 15.3225 12.4251 15.3163C12.3366 15.3101 12.2504 15.2855 12.1719 15.2441C12.0934 15.2027 12.0244 15.1454 11.9693 15.0758C11.9142 15.0062 11.8743 14.9259 11.852 14.84C11.452 13.304 10.212 12.346 8.642 12.29C8.51221 12.2995 8.38195 12.3008 8.252 12.294ZM24.284 15.96V13.036C24.284 12.588 24.696 12.232 25.174 12.232C25.2816 12.2285 25.3887 12.2467 25.4891 12.2856C25.5894 12.3245 25.6809 12.3832 25.758 12.4583C25.8351 12.5334 25.8963 12.6232 25.9379 12.7225C25.9795 12.8218 26.0006 12.9284 26 13.036V16.678C26 17.4736 25.6839 18.2367 25.1213 18.7993C24.5587 19.3619 23.7956 19.678 23 19.678H3.722C1.67 19.678 0 18.158 0 16.278V3.004C0 2.20835 0.31607 1.44529 0.87868 0.88268C1.44129 0.32007 2.20435 0.00400001 3 0.00400001L22.276 0C24.33 0 26 1.52 26 3.402L25.996 9.242C25.982 9.676 25.636 9.988 25.174 9.988C24.708 9.988 24.3 9.676 24.284 9.238L24.278 3.402C24.278 2.414 23.378 1.724 22.278 1.724H3.72C3.18957 1.724 2.68086 1.93471 2.30579 2.30979C1.93071 2.68486 1.72 3.19357 1.72 3.724V16.28C1.72 17.266 2.62 17.962 3.72 17.962H22.282C22.8124 17.962 23.3211 17.7513 23.6962 17.3762C24.0713 17.0011 24.282 16.4924 24.282 15.962L24.284 15.96ZM8.408 7.466C7.96095 7.48744 7.53931 7.68012 7.23051 8.00409C6.92171 8.32805 6.74945 8.75844 6.74945 9.206C6.74945 9.65356 6.92171 10.0839 7.23051 10.4079C7.53931 10.7319 7.96095 10.9246 8.408 10.946C8.85505 10.9246 9.27669 10.7319 9.58549 10.4079C9.89429 10.0839 10.0665 9.65356 10.0665 9.206C10.0665 8.75844 9.89429 8.32805 9.58549 8.00409C9.27669 7.68012 8.85505 7.48744 8.408 7.466ZM20.448 15.21H15.9C15.366 15.21 14.92 14.87 14.92 14.43C14.92 13.99 15.366 13.652 15.9 13.652H20.444C20.98 13.652 21.424 13.99 21.424 14.432C21.424 14.872 20.978 15.21 20.444 15.21H20.448ZM20.448 7.67H15.9C15.366 7.67 14.92 7.332 14.92 6.892C14.92 6.452 15.366 6.114 15.9 6.114H20.444C20.98 6.114 21.424 6.452 21.424 6.894C21.424 7.334 20.978 7.67 20.444 7.67H20.448ZM20.448 11.13H15.9C15.366 11.13 14.92 10.794 14.92 10.352C14.92 9.912 15.366 9.574 15.9 9.574H20.444C20.978 9.574 21.424 9.912 21.424 10.354C21.424 10.794 20.98 11.13 20.444 11.13H20.448Z" fill="#39383C"/>
</svg>
