<svg width="19" height="19" viewBox="0 0 19 19" fill="none" xmlns="http://www.w3.org/2000/svg">
<path d="M10.6913 12.9706C10.8633 13.0497 11.0572 13.0677 11.2409 13.0218C11.4246 12.9759 11.5872 12.8688 11.7019 12.7182L11.9977 12.3308C12.1529 12.1238 12.3542 11.9558 12.5855 11.8401C12.8169 11.7245 13.0721 11.6642 13.3307 11.6642H15.8303C16.2722 11.6642 16.696 11.8398 17.0085 12.1523C17.321 12.4648 17.4966 12.8886 17.4966 13.3306V15.8301C17.4966 16.272 17.321 16.6959 17.0085 17.0084C16.696 17.3209 16.2722 17.4964 15.8303 17.4964C11.8528 17.4964 8.03823 15.9164 5.22573 13.1039C2.41323 10.2914 0.833191 6.47682 0.833191 2.49935C0.833191 2.05741 1.00875 1.63357 1.32125 1.32107C1.63375 1.00857 2.05759 0.833008 2.49953 0.833008H4.99904C5.44098 0.833008 5.86482 1.00857 6.17732 1.32107C6.48982 1.63357 6.66538 2.05741 6.66538 2.49935V4.99886C6.66538 5.25755 6.60515 5.51269 6.48946 5.74407C6.37377 5.97545 6.2058 6.17672 5.99885 6.33193L5.60892 6.62438C5.45597 6.74117 5.34816 6.90731 5.30381 7.09458C5.25946 7.28184 5.28131 7.47869 5.36564 7.65167C6.50432 9.96444 8.37707 11.8349 10.6913 12.9706Z" stroke="#0A0A0A" stroke-width="1.66634" stroke-linecap="round" stroke-linejoin="round"/>
</svg>
