<svg width="7" height="15" viewBox="0 0 7 15" fill="none" xmlns="http://www.w3.org/2000/svg">
<path d="M0 11.3526C0.000341816 10.7968 0.136772 10.2495 0.397373 9.75854C0.657975 9.26759 1.03482 8.84791 1.495 8.53616V1.91546C1.495 1.38154 1.6752 0.927698 2.04227 0.560623C2.40935 0.193549 2.86318 0 3.39711 0C3.93771 0 4.39155 0.186875 4.75863 0.553949C5.1257 0.927698 5.31257 1.37486 5.31257 1.90879V8.52948C5.78644 8.85651 6.14684 9.27031 6.40712 9.75752C6.66741 10.2447 6.79422 10.7787 6.79422 11.3459C6.79422 11.96 6.64072 12.5339 6.34038 13.0545C6.04005 13.5751 5.62626 13.9889 5.10568 14.2892C4.5851 14.5896 4.0178 14.7431 3.39711 14.7431C2.78309 14.7431 2.2158 14.5896 1.69522 14.2892C1.17464 13.9889 0.760846 13.5751 0.453838 13.0545C0.14683 12.5339 0 11.9666 0 11.3526ZM1.17464 11.3526C1.17464 11.9733 1.39488 12.5072 1.8287 12.9477C2.26252 13.3882 2.78977 13.6085 3.40379 13.6085C4.02448 13.6085 4.5584 13.3882 5.00557 12.9411C5.45273 12.4939 5.67965 11.9666 5.67965 11.3593C5.67965 10.9455 5.57286 10.5584 5.35929 10.2047C5.14572 9.85095 4.85206 9.57732 4.47831 9.38377L4.29144 9.29033C4.2247 9.26363 4.19133 9.19689 4.19133 9.09678V1.91546C4.19133 1.70189 4.11791 1.52169 3.96441 1.37486C3.8109 1.23471 3.62403 1.16129 3.39711 1.16129C3.18354 1.16129 2.99667 1.23471 2.84316 1.37486C2.68966 1.51502 2.61624 1.69522 2.61624 1.91546V9.08343C2.61624 9.18354 2.58287 9.25029 2.52281 9.27698L2.34261 9.37042C1.97553 9.56397 1.68854 9.8376 1.48165 10.1913C1.27475 10.5451 1.17464 10.9255 1.17464 11.3526ZM1.69522 11.3526C1.69522 11.8265 1.8554 12.2336 2.18243 12.5673C2.50946 12.901 2.89655 13.0679 3.35707 13.0679C3.81758 13.0679 4.21135 12.901 4.55173 12.5673C4.89211 12.2336 5.05896 11.8265 5.05896 11.3593C5.05896 10.9388 4.91213 10.5651 4.62514 10.2447C4.33816 9.92437 3.98443 9.73082 3.57064 9.67743V4.7653C3.57064 4.72525 3.55061 4.67854 3.5039 4.63849C3.48541 4.61776 3.46281 4.60112 3.43752 4.58963C3.41224 4.57813 3.38484 4.57204 3.35707 4.57175C3.297 4.57175 3.25028 4.59177 3.21691 4.62514C3.18354 4.66519 3.16352 4.70523 3.16352 4.7653V9.66408C2.7564 9.72415 2.40935 9.91102 2.12236 10.2314C1.83537 10.5584 1.69522 10.9255 1.69522 11.3526Z" fill="#9810FA"/>
</svg>
