<svg width="26" height="23" viewBox="0 0 26 23" fill="none" xmlns="http://www.w3.org/2000/svg">
<mask id="mask0_12_2016" style="mask-type:luminance" maskUnits="userSpaceOnUse" x="0" y="0" width="26" height="23">
<path d="M25.9784 0H0V23H25.9784V0Z" fill="white"/>
</mask>
<g mask="url(#mask0_12_2016)">
<path d="M1.19624 15.4105C1.89528 16.0572 2.79267 16.407 3.93983 16.48C4.54347 16.5182 5.15726 16.513 5.75142 16.5084C6.01497 16.5063 6.27853 16.5045 6.54209 16.5057C6.62886 16.5063 6.71551 16.5057 6.79605 16.5057H6.8231L6.82656 16.5135C6.8327 16.5273 6.83798 16.5373 6.83981 16.5369C6.81825 17.0362 6.79648 17.5358 6.77449 18.0353C6.73256 18.9868 6.68912 19.9706 6.65204 20.9386C6.64565 21.2542 6.65959 21.5699 6.69374 21.8838C6.70666 22.0238 6.759 22.1575 6.84473 22.2692C6.93046 22.3808 7.04607 22.4661 7.17828 22.5152C7.85152 22.8011 8.5776 22.9426 9.30927 22.9304C9.57438 22.9297 9.83929 22.9156 10.103 22.888C10.5695 22.8405 10.6785 22.6226 10.725 22.2109C10.904 20.5768 10.906 18.928 10.7311 17.2934C10.7086 17.0784 10.6926 16.863 10.6738 16.614C10.6692 16.5509 10.6643 16.4859 10.6591 16.4186C10.79 16.4903 10.9166 16.5597 11.0392 16.6269C11.3991 16.8238 11.739 17.0098 12.0694 17.1989C12.9073 17.6784 13.7516 18.1805 14.5682 18.6656C16.3037 19.6973 18.0984 20.7632 19.9399 21.6827C20.0597 21.7423 20.1783 21.805 20.2964 21.8674C20.9019 22.1874 21.5277 22.5175 22.3122 22.4594C22.862 22.4181 23.1018 22.3345 23.0856 21.7081C23.0808 21.5237 23.0708 21.3369 23.0612 21.1564C23.0458 20.869 23.0303 20.572 23.0353 20.2819C23.0675 18.4335 23.1132 16.627 23.1537 15.1044C23.1607 14.8464 23.1842 14.5848 23.2068 14.3316C23.2148 14.2438 23.2227 14.1564 23.2298 14.0694C23.899 13.9853 24.5217 13.6841 25.0018 13.2121C25.4822 12.74 25.7931 12.1235 25.8869 11.4576C26.0076 10.6013 25.9142 9.93148 25.5932 9.3511C25.0632 8.39177 24.1144 7.99142 23.2497 7.70079V7.61203C23.2497 7.49607 23.2507 7.38471 23.2489 7.27316C23.2393 6.64678 23.2289 6.02035 23.2181 5.39384C23.1926 3.89734 23.1665 2.34988 23.1541 0.828121C23.1506 0.425621 22.9886 0.226252 22.8531 0.129523C22.6497 -0.0154633 22.3537 -0.0390112 22.041 0.0650261C21.9202 0.109633 21.8043 0.166652 21.6955 0.235163C21.6577 0.257196 21.62 0.279238 21.5821 0.299658C21.4727 0.359523 21.364 0.420887 21.2555 0.482363C21.0635 0.590807 20.8651 0.70291 20.6664 0.803507C20.0835 1.09792 19.499 1.38969 18.9133 1.67888C17.7365 2.26313 16.5196 2.86717 15.3406 3.49601C13.9516 4.23706 12.503 5.07591 11.0354 5.98947C10.9757 6.02656 10.9169 6.0647 10.8589 6.10146C10.3937 6.3997 9.99204 6.65763 9.43216 6.45785C9.36175 6.43758 9.28784 6.43233 9.21527 6.44246C9.19996 6.44365 9.18467 6.44484 9.16958 6.44549C8.92164 6.45699 8.67372 6.46569 8.42514 6.47429C7.85276 6.4944 7.26096 6.51513 6.68039 6.57101C5.38113 6.69655 4.40799 6.89827 3.52472 7.22489C2.22181 7.70671 1.37777 8.36544 0.868556 9.29802C0.26625 10.365 -0.00186026 11.5873 0.0987853 12.8076C0.169605 13.6118 0.357601 14.6341 1.19624 15.4105ZM9.30172 16.2392V21.6581H8.16988L8.01899 16.4817L9.30172 16.2392ZM2.20121 9.56778C2.60306 8.9254 3.26838 8.45292 4.12447 8.20131C4.84058 7.98437 5.57205 7.82153 6.3127 7.71423C7.07188 7.61051 7.82646 7.54691 8.62533 7.47953C8.9279 7.45404 9.23339 7.42826 9.54319 7.39989L9.43335 14.8117L9.33396 14.826C9.19273 14.8498 9.05018 14.8647 8.9071 14.8711C8.38753 14.8827 7.86085 14.9177 7.35141 14.9518C6.23725 15.0256 5.08515 15.1021 3.95492 14.9361L3.93013 14.9325C3.70774 14.9003 3.4774 14.8662 3.25921 14.8129C2.33812 14.5887 1.79116 14.039 1.58678 13.1317C1.44322 12.527 1.42367 11.8996 1.52933 11.2871C1.635 10.6748 1.86367 10.0899 2.20164 9.56778H2.20121ZM11.0058 7.37646C12.2659 6.4917 20.4402 2.38761 21.9404 1.87709C22.0249 6.17283 21.962 10.5436 21.902 14.772C21.8737 16.7381 21.8447 18.7692 21.8303 20.7811C20.4538 20.0621 19.0965 19.2962 17.7823 18.5542C15.5821 17.3124 13.3077 16.0286 10.9566 14.9796C11.0912 12.0204 11.1068 9.60047 11.0062 7.37646H11.0058ZM23.2686 12.4923V8.90359C24.0602 9.13725 24.5748 9.92256 24.5342 10.8631C24.4996 11.6718 23.9754 12.3362 23.2691 12.4921L23.2686 12.4923Z" fill="#39383C"/>
</g>
</svg>
