<svg width="19" height="19" viewBox="0 0 19 19" fill="none" xmlns="http://www.w3.org/2000/svg">
<path d="M9.1649 17.4964C13.7664 17.4964 17.4966 13.7662 17.4966 9.16471C17.4966 4.56324 13.7664 0.833008 9.1649 0.833008C4.56342 0.833008 0.833191 4.56324 0.833191 9.16471C0.833191 13.7662 4.56342 17.4964 9.1649 17.4964Z" stroke="#0A0A0A" stroke-width="1.66634" stroke-linecap="round" stroke-linejoin="round"/>
<path d="M9.16492 14.1636C11.9258 14.1636 14.1639 11.9254 14.1639 9.16455C14.1639 6.40367 11.9258 4.16553 9.16492 4.16553C6.40403 4.16553 4.16589 6.40367 4.16589 9.16455C4.16589 11.9254 6.40403 14.1636 9.16492 14.1636Z" stroke="#0A0A0A" stroke-width="1.66634" stroke-linecap="round" stroke-linejoin="round"/>
<path d="M9.16494 10.8307C10.0852 10.8307 10.8313 10.0847 10.8313 9.16439C10.8313 8.24409 10.0852 7.49805 9.16494 7.49805C8.24464 7.49805 7.4986 8.24409 7.4986 9.16439C7.4986 10.0847 8.24464 10.8307 9.16494 10.8307Z" stroke="#0A0A0A" stroke-width="1.66634" stroke-linecap="round" stroke-linejoin="round"/>
</svg>
